<?xml version="1.0" encoding="utf-8"?>
<!-- Generator: Adobe Illustrator 16.0.0, SVG Export Plug-In . SVG Version: 6.00 Build 0)  -->
<!DOCTYPE svg PUBLIC "-//W3C//DTD SVG 1.1//EN" "http://www.w3.org/Graphics/SVG/1.1/DTD/svg11.dtd">
<svg version="1.1" id="Layer_1" xmlns="http://www.w3.org/2000/svg" xmlns:xlink="http://www.w3.org/1999/xlink" x="0px" y="0px"
	 width="172px" height="65px" viewBox="0 0 172 65" enable-background="new 0 0 172 65" xml:space="preserve">
<path fill-rule="evenodd" clip-rule="evenodd" fill="#FFFFFF" d="M29.395,11.327c0,0.979,0.006,3.487,0,4.394
	c0,0.407,0.152,0.698,0.344,0.908c0.115,0.116,0.215,0.193,0.311,0.25c0.035,0.032,0.191,0.089,0.246,0.089
	c0.08,0.014,0.184,0.023,0.311,0.019c0.314-0.022,0.621-0.13,0.9-0.433c0.595-0.649,1.854-1.994,2.39-2.571
	c0.158-0.17-0.009-0.197-0.144-0.192c-1.102,0.031-2.283,1.083-3.084,1.803c-0.102-1.083-0.266-3.498-1.066-4.414
	C29.508,11.075,29.395,11.081,29.395,11.327 M28.381,11.178c-0.805,0.917-0.947,3.331-1.04,4.414
	c-0.805-0.72-1.985-1.771-3.086-1.803c-0.133-0.004-0.306,0.022-0.148,0.192c0.536,0.578,1.795,1.922,2.392,2.571
	c0.278,0.303,0.587,0.411,0.872,0.429c0.158,0.009,0.257,0,0.339-0.014c0.055,0,0.209-0.058,0.246-0.089
	c0.101-0.057,0.195-0.134,0.291-0.228c0.213-0.232,0.365-0.523,0.361-0.93c0-0.907,0.004-3.416,0.004-4.394
	C28.613,11.081,28.471,11.075,28.381,11.178 M19.033,33.676c0.073-0.827-0.485-1.539-1.272-1.689
	c-0.107-0.009-0.214-0.019-0.316-0.031c-3.406-0.327-6.773-1.302-9.898-2.946c-0.071-0.042-0.137,0.036-0.102,0.106
	c0.194,0.371,0.752,0.801,1.603,1.404c0.972,0.692,4.142,2.227,6.839,2.757C16.923,33.484,17.976,33.617,19.033,33.676
	 M21.598,37.611c0.042-0.305-0.016-0.707-0.166-1.068c-0.058-0.27-0.249-0.514-0.493-0.707c-0.396-0.312-0.901-0.5-1.286-0.514
	c-3.51-0.197-6.928-1.426-9.966-3.56c-0.152-0.106-0.209-0.035-0.09,0.113c0.53,0.647,1.053,1.332,1.73,1.859
	c2.055,1.605,4.445,2.562,6.878,2.992c0.521,0.092,1.052,0.16,1.58,0.205c0.117,0.004,0.195,0,0.215,0.035
	c0.022,0.031,0.024,0.119-0.007,0.232c-0.045,0.514-0.071,1.037-0.071,1.561c0,2.418,0.544,4.887,1.788,7.154
	c0.411,0.746,1.009,1.371,1.568,1.994c0.126,0.143,0.2,0.098,0.121-0.064C21.795,44.537,21.168,41.029,21.598,37.611 M24.587,40.338
	c0.008-0.102,0.015-0.209,0.021-0.309c-0.012-0.787-0.622-1.453-1.439-1.529h-0.031c-0.124,1.029-0.18,2.066-0.154,3.107
	c0.051,2.688,1.084,6.014,1.606,7.074c0.457,0.926,0.788,1.541,1.127,1.787c0.069,0.051,0.149,0,0.126-0.076
	C24.742,47.088,24.31,43.678,24.587,40.338 M27.932,41.146c0-0.004,0.045-0.393,0.047-0.396c0.195-1.248-0.238-2.504-1.017-3.389
	c-1.288-1.469-3.434-1.588-4.286-2.518c-0.845-0.934-0.514-3.291-1.814-4.646c-0.817-0.854-1.971-1.395-3.259-1.426l-0.357-0.014
	c-3.699-0.045-7.094-0.733-10.611-2.15c-0.121-0.05-0.268,0.062-0.169,0.2c0.321,0.43,1.004,1.048,2.202,1.552
	c3.748,1.588,8.844,1.963,8.858,1.963c2.168,0.107,3.117,2.021,3.612,3.683c0.171,0.568,0.423,1.102,0.716,1.441
	c0.286,0.346,0.767,0.746,1.326,1.018c1.586,0.775,3.503,1.979,3.225,4.088c0,0.008-0.688,4.984,0.238,8.875
	c0.298,1.248,0.743,2.012,1.12,2.396c0.12,0.119,0.257,0,0.228-0.127C27.197,48.064,27.311,44.715,27.932,41.146 M17.71,26.147
	c-0.479,0.112-1.573,0.389-2.288,0.688c-0.117,0.046-0.145,0.25,0.005,0.31c0.802,0.317,2.642,0.522,3.236,0.286
	c0.871-0.34,0.68-1.775,0.228-2.382c-1.982-2.818-3.105-6.193-3.291-9.851c-0.006-0.183-0.092-0.183-0.135,0
	c-0.188,0.809-0.402,1.637-0.402,2.482C15.062,20.813,16.102,23.724,17.71,26.147 M18.19,20.886c0.473,0.925,1.01,1.81,1.604,2.66
	c0.695-0.461,0.91-1.332,0.551-2.03c-0.06-0.085-0.113-0.174-0.172-0.26c-1.817-2.807-3.106-5.994-3.721-9.411
	c-0.015-0.08-0.11-0.084-0.146-0.009c-0.175,0.371-0.17,1.073-0.122,2.093C16.234,15.109,16.968,18.493,18.19,20.886 M21.501,20.299
	c1.237,1.726,0.316,3.644-0.677,5.066c-1.218,1.725,0.278,3.912,0.205,2.633c-0.1-1.882,2.276-2.991,2.599-5.223
	c0.166-1.157-0.107-2.378-0.871-3.384l-0.202-0.278c-2.218-2.86-3.748-5.892-4.785-9.464c-0.035-0.121-0.211-0.165-0.259,0
	c-0.137,0.509-0.203,1.414,0.127,2.651C18.686,16.155,21.495,20.291,21.501,20.299 M39.125,25.048
	c-0.451,0.607-0.643,2.042,0.228,2.382c0.598,0.237,2.437,0.032,3.236-0.286c0.148-0.059,0.121-0.264,0.001-0.31
	c-0.709-0.299-1.807-0.576-2.288-0.688c1.615-2.423,2.652-5.334,2.652-8.468c0-0.845-0.217-1.673-0.402-2.482
	c-0.042-0.183-0.128-0.183-0.138,0C42.23,18.855,41.109,22.23,39.125,25.048 M37.671,21.516c-0.362,0.698-0.146,1.569,0.523,2.016
	c0.62-0.836,1.153-1.721,1.627-2.646c1.229-2.393,1.958-5.777,2.01-6.957c0.047-1.02,0.052-1.722-0.123-2.093
	c-0.036-0.075-0.13-0.07-0.144,0.009c-0.616,3.417-1.903,6.604-3.724,9.411L37.671,21.516z M36.981,27.999
	c-0.071,1.278,1.429-0.909,0.207-2.633c-0.996-1.422-1.914-3.34-0.68-5.066c0.01-0.008,2.824-4.144,3.864-7.999
	c0.334-1.237,0.271-2.142,0.127-2.651c-0.044-0.165-0.22-0.121-0.256,0c-1.039,3.572-2.562,6.604-4.789,9.464
	c0,0-0.2,0.278-0.202,0.278c-0.765,1.006-1.035,2.227-0.868,3.384C34.704,25.008,37.085,26.116,36.981,27.999 M28.9,61.615
	c-13.31,0-24.134-13.064-24.134-29.115C4.767,16.45,15.591,3.39,28.9,3.39c13.308,0,24.134,13.06,24.134,29.11
	C53.034,48.551,42.208,61.615,28.9,61.615 M28.9,2.5c-13.789,0-25.003,13.458-25.003,30c0,16.542,11.214,30,25.003,30
	c13.788,0,25.002-13.457,25.002-30C53.902,15.958,42.688,2.5,28.9,2.5 M24.094,32.3c-0.633,0-1.176-0.543-1.284-0.774
	c-0.312,1.467,0.492,2.154,1.664,2.371c-0.201-0.477-0.331-0.976-0.38-1.481V32.3z M24.128,31.164
	c0.028-0.456,0.037-1.015,0.05-1.448c-1.05-0.116-1.722-0.917-1.86-1.114C21.673,29.634,22.406,30.926,24.128,31.164 M33.818,32.393
	c-0.046,0.5-0.175,1.001-0.38,1.474c1.173-0.213,1.923-0.901,1.617-2.368c-0.11,0.232-0.604,0.773-1.237,0.773V32.393z
	 M35.599,28.58c-0.141,0.192-0.809,0.992-1.861,1.107c0.017,0.431,0.022,0.998,0.051,1.45C35.507,30.9,36.242,29.608,35.599,28.58
	 M30.209,25.991c3.484,2.002,4.76,0.156,4.76,0.156s1.273,1.52-0.919,2.11c-2.314,0.626-3.884-0.787-4.257-1.06
	C29.104,26.688,28.959,25.275,30.209,25.991 M32.079,24.176c1.337,0.813,1.782,0.835,1.782,0.835s-0.046,1.395-2.041,0.63
	c-0.703-0.272-2.836-1.47-2.477-1.971C29.949,22.83,30.996,23.51,32.079,24.176 M27.707,25.991
	c-3.483,2.002-4.706,0.156-4.706,0.156s-1.327,1.52,0.865,2.11c2.314,0.626,3.883-0.787,4.257-1.06
	C28.812,26.688,28.957,25.275,27.707,25.991 M25.838,24.176c-1.338,0.813-1.729,0.835-1.729,0.835s-0.009,1.395,1.986,0.63
	c0.703-0.272,2.834-1.47,2.477-1.971C27.964,22.83,26.919,23.51,25.838,24.176 M32.981,31.807c-0.059-0.595-0.137-1.668-0.158-2.235
	c-1.64,0-3.378-1.251-3.864-2.034c-0.486,0.783-2.227,2.034-3.864,2.034c-0.023,0.567-0.101,1.641-0.16,2.235
	c-0.112,1.086,0.274,2.212,0.996,3.023c0.373,0.42,0.838,0.826,1.354,1.062c0.041,0.02,0.093,0.037,0.144,0.061l0.245,0.105
	c0.139,0.072,0.22,0.18,0.353,0.279c0.383,0.275,0.918,0.258,0.932,0.258c0.018,0,0.551,0.018,0.934-0.258
	c0.133-0.1,0.213-0.207,0.355-0.279l0.244-0.105c0.053-0.023,0.098-0.041,0.145-0.061c0.514-0.236,0.978-0.643,1.35-1.062
	C32.709,34.02,33.094,32.893,32.981,31.807 M30.877,31.365c-0.936,0-1.133-0.281-1.133-0.281S29.98,30.3,30.875,30.3
	c0.891,0,1.224,0.653,1.224,0.653C32.07,31.053,32.149,31.365,30.877,31.365 M28.979,34.941c-0.785,0-1.424-0.652-1.424-0.84
	s2.85-0.188,2.85,0S29.766,34.941,28.979,34.941 M27.039,31.365c-1.269,0-1.191-0.312-1.222-0.411c0,0,0.334-0.653,1.228-0.653
	c0.89,0,1.133,0.783,1.133,0.783S27.977,31.365,27.039,31.365 M28.979,32.563c0.408,0,0.738,0.171,0.738,0.309
	c0,0.138-0.33,0.31-0.738,0.31c-0.402,0-0.732-0.172-0.732-0.31C28.246,32.734,28.576,32.563,28.979,32.563 M42.139,33.277
	c2.687-0.531,5.862-2.065,6.833-2.757c0.85-0.604,1.411-1.033,1.595-1.404c0.036-0.07-0.026-0.148-0.099-0.106
	c-3.124,1.645-6.488,2.619-9.895,2.946c-0.105,0.013-0.213,0.022-0.316,0.031c-0.787,0.15-1.347,0.862-1.272,1.689
	C40.039,33.617,41.091,33.484,42.139,33.277 M34.617,47.844c-0.079,0.162,0,0.207,0.123,0.064c0.559-0.623,1.157-1.248,1.568-1.994
	c1.244-2.268,1.787-4.736,1.787-7.154c0-0.523-0.03-1.047-0.071-1.561c-0.03-0.113-0.03-0.201-0.009-0.232
	c0.021-0.035,0.095-0.031,0.217-0.035c0.528-0.045,1.055-0.113,1.58-0.205c2.433-0.43,4.82-1.387,6.88-2.992
	c0.677-0.527,1.197-1.211,1.725-1.859c0.12-0.148,0.065-0.22-0.083-0.113c-3.043,2.134-6.459,3.363-9.969,3.56
	c-0.385,0.014-0.89,0.201-1.285,0.514c-0.248,0.193-0.437,0.438-0.495,0.707c-0.15,0.361-0.206,0.764-0.164,1.068
	C36.85,41.029,36.224,44.537,34.617,47.844 M32.179,50.393c-0.028,0.076,0.056,0.127,0.122,0.076
	c0.341-0.246,0.67-0.861,1.128-1.787c0.522-1.061,1.553-4.387,1.605-7.074c0.026-1.041-0.029-2.078-0.153-3.107H34.85
	c-0.818,0.076-1.434,0.742-1.442,1.529c0.009,0.1,0.017,0.207,0.023,0.309C33.708,43.678,33.272,47.088,32.179,50.393
	 M30.025,51.697c-0.027,0.127,0.109,0.246,0.23,0.127c0.375-0.385,0.822-1.148,1.115-2.396c0.93-3.891,0.244-8.867,0.244-8.875
	c-0.283-2.109,1.637-3.312,3.223-4.088c0.561-0.271,1.04-0.672,1.326-1.018c0.292-0.34,0.546-0.873,0.714-1.441
	c0.496-1.662,1.447-3.576,3.613-3.683c0.012,0,5.11-0.375,8.857-1.963c1.197-0.504,1.883-1.122,2.204-1.552
	c0.096-0.138-0.048-0.25-0.169-0.2c-3.516,1.417-6.912,2.105-10.614,2.15l-0.354,0.014c-1.29,0.031-2.441,0.572-3.261,1.426
	c-1.297,1.355-0.967,3.712-1.812,4.646c-0.854,0.93-2.999,1.049-4.287,2.518c-0.777,0.885-1.213,2.141-1.016,3.389
	c0,0.004,0.049,0.393,0.049,0.396C30.707,44.715,30.82,48.064,30.025,51.697 M44.977,49.777c-0.046-0.045-0.099-0.035-0.136-0.027
	c-0.136,0.027-0.301,0.041-0.435,0.023c-0.622-0.082-1.189-0.123-1.817-0.199c0.121-0.379,0.142-1.064-0.354-1.52
	c-0.505-0.461-1.171-0.223-1.588,0.26c-0.18,0.205-0.34,0.438-0.52,0.652c-0.104,0.121-0.337,0.361-0.429,0.441
	c-0.071,0.061-0.158,0.117-0.215,0.189c-0.071,0.08-0.096,0.17-0.009,0.25c0.092,0.086,0.164,0.027,0.271-0.094
	c0.182-0.184,0.214-0.156,0.379-0.004l2.766,2.543l0.418-0.615l-1.259-1.158l0.053-0.068c0.079-0.09,0.118-0.133,0.168-0.229
	l1.397,0.152c0.459,0.059,0.808,0.17,1.166-0.246C44.928,50.021,45.021,49.822,44.977,49.777 M41.811,48.717
	c0.341,0.305,0.713,0.787,0.135,1.457c-0.055,0.062-0.085,0.098-0.127,0.133l-1.305-1.195c-0.049-0.047-0.068-0.086,0.002-0.168
	l0.143-0.164C41.094,48.273,41.435,48.373,41.811,48.717 M8.689,41.879c-0.099-0.285-0.178-0.785-0.049-1.291l0.435,0.037
	c-0.154,0.404-0.135,0.908-0.062,1.135c0.18,0.537,0.558,0.826,1.017,0.666c0.229-0.084,0.298-0.344,0.349-0.627
	c0.087-0.436,0.083-0.898,0.257-1.309c0.128-0.326,0.331-0.625,0.789-0.793c0.636-0.221,1.249,0.266,1.492,0.99
	c0.079,0.24,0.136,0.557,0.194,0.969c-0.285,0.121-0.5,0.197-0.673,0.256c-0.086,0.035-0.185,0.059-0.228-0.08
	c-0.028-0.09-0.018-0.166,0.276-0.336c0.124-0.07,0.216-0.295,0.073-0.725c-0.151-0.465-0.473-0.756-0.909-0.604
	c-0.301,0.107-0.345,0.836-0.371,1.119c-0.031,0.312-0.07,0.67-0.216,0.969c-0.133,0.273-0.372,0.506-0.72,0.631
	C9.591,43.154,8.941,42.641,8.689,41.879 M14.834,45.777c-0.035,0.01-0.081,0-0.224,0.02l-0.084-0.303l-0.561-1.168l-3.452,1.748
	l-0.385-0.631l3.519-1.787c-0.151-0.346-0.445-0.945-0.445-0.945c-0.17-0.348-0.214-0.223-0.458-0.15
	c-0.112,0.031-0.229,0.049-0.271-0.037c-0.057-0.125-0.006-0.174,0.106-0.23c0.135-0.072,0.309-0.154,0.479-0.234
	c0.201-0.094,0.266,0,0.331,0.162c0.078,0.178,0.146,0.336,0.257,0.59c0.328,0.76,0.7,1.512,1.057,2.254
	c0.066,0.137,0.166,0.264,0.251,0.385c0.021,0.039,0.049,0.066,0.063,0.098c0.016,0.035,0.053,0.15-0.062,0.209
	C14.896,45.787,14.892,45.785,14.834,45.777 M17.468,49.574c-0.064-0.066-0.172-0.074-0.295-0.041l-3.884,1.098l-0.345-0.373
	c0.839-1.506,1.375-2.494,2.091-3.719c0.058-0.094,0.105-0.143,0.041-0.246c-0.13-0.184-0.115-0.24-0.042-0.299
	c0.081-0.068,0.18-0.045,0.251,0.066c0.085,0.166,0.265,0.418,0.351,0.555c0.107,0.17,0.035,0.305-0.051,0.447l-1.788,2.996
	l3.162-0.912c0.203-0.062-0.2-0.439-0.036-0.568c0.081-0.062,0.159-0.027,0.236,0.09c0.092,0.156,0.193,0.312,0.279,0.432
	c0.087,0.117,0.171,0.203,0.286,0.342c0.093,0.102,0.087,0.205,0.006,0.266C17.681,49.75,17.63,49.732,17.468,49.574 M20.193,54.295
	c0.763-1.014,0.494-2.307-0.544-3.139c-0.257-0.205-0.428-0.328-0.579-0.441c-0.124-0.09-0.249-0.178-0.366-0.277
	c-0.125-0.1-0.281-0.242-0.356-0.33c-0.063-0.066-0.126-0.152-0.198-0.211c-0.079-0.062-0.183-0.066-0.251,0.023
	c-0.081,0.102,0.015,0.172,0.122,0.268c0.191,0.174,0.158,0.205,0.026,0.385l-2.304,3.053c0.343,0.238,0.558,0.377,0.84,0.662
	c0.126,0.129,0.232,0.25,0.316,0.314C18.086,55.553,19.372,55.387,20.193,54.295 M19.52,53.881
	c-0.663,0.881-1.502,1.234-2.396,0.514c-0.235-0.188-0.405-0.346-0.521-0.504c-0.071-0.096-0.062-0.107,0.035-0.242l2.003-2.652
	c0.09-0.121,0.146-0.121,0.245-0.035l0.438,0.354C20.444,52.209,20.104,53.098,19.52,53.881 M22.604,53.541
	c-0.093-0.031-0.123,0.08-0.162,0.16l-1.642,3.35L20.13,56.77l1.668-3.404c0.112-0.223,0.097-0.178-0.081-0.311
	c-0.08-0.064-0.197-0.117-0.143-0.225c0.052-0.107,0.143-0.127,0.265-0.053c0.144,0.088,0.395,0.24,0.521,0.303
	c0.125,0.072,0.348,0.166,0.509,0.232c0.123,0.053,0.162,0.143,0.113,0.25C22.941,53.648,22.835,53.617,22.604,53.541
	 M27.502,54.842c-0.101,0.014-0.188,0.066-0.26,0.174l-2.42,3.43l-0.498-0.066c-0.253-1.719-0.437-2.781-0.623-4.207
	c-0.011-0.104-0.002-0.176-0.117-0.211c-0.212-0.057-0.234-0.115-0.214-0.205c0.025-0.104,0.115-0.156,0.234-0.107
	c0.169,0.066,0.461,0.146,0.61,0.201c0.182,0.068,0.209,0.215,0.231,0.379l0.426,3.443l1.914-2.754
	c0.12-0.174-0.423-0.209-0.373-0.416c0.028-0.104,0.107-0.121,0.236-0.08c0.164,0.053,0.826,0.107,1.004,0.107
	c0.138,0.006,0.198,0.053,0.181,0.174C27.82,54.787,27.737,54.814,27.502,54.842 M33.237,54.037
	c-0.243,0.115-0.26,0.191-0.172,0.518c0.1,0.391,0.944,3.586,0.944,3.586l-0.767,0.201l-0.835-3.268l-0.847,3.26l-0.349,0.117
	l-1.926-2.854l0.221,3.26l-0.672,0.191l-0.242-3.725c-0.027-0.379-0.084-0.465-0.309-0.482c-0.188-0.018-0.269-0.068-0.282-0.17
	c-0.024-0.158,0.11-0.178,0.179-0.184c0.182-0.006,0.662,0.018,0.82,0.01c0.135-0.004,0.207,0.014,0.314,0.17l1.98,3.016
	l0.897-3.445c0.048-0.17,0.154-0.25,0.278-0.285c0.162-0.041,0.558-0.193,0.729-0.238c0.065-0.02,0.229-0.027,0.251,0.117
	C33.466,53.938,33.396,53.961,33.237,54.037 M39.369,50.352c-0.078,0.154-0.058,0.369-0.027,0.494l0.847,3.889l-0.382,0.336
	c-1.396-0.971-2.325-1.498-3.463-2.32c-0.084-0.062-0.13-0.117-0.23-0.055c-0.185,0.117-0.242,0.1-0.291,0.023
	c-0.058-0.09-0.037-0.193,0.079-0.252c0.161-0.084,0.42-0.244,0.555-0.324c0.173-0.1,0.295-0.016,0.433,0.08l2.786,1.949
	l-0.736-3.273c-0.041-0.211-0.434,0.178-0.545,0.006c-0.057-0.096-0.015-0.162,0.102-0.238c0.206-0.135,0.558-0.502,0.745-0.725
	c0.093-0.102,0.207-0.076,0.266,0.014C39.535,50.008,39.47,50.15,39.369,50.352 M46.23,45.525c-0.587-0.381-1.118-0.148-1.523,0.275
	c0.035-0.432-0.135-0.801-0.527-1.051c-0.445-0.285-1.111-0.061-1.485,0.559c-0.127,0.207-0.221,0.42-0.349,0.631
	c-0.084,0.145-0.235,0.363-0.315,0.457c-0.062,0.07-0.135,0.143-0.18,0.223c-0.062,0.1-0.036,0.207,0.051,0.266
	c0.079,0.043,0.115,0.025,0.237-0.158c0.147-0.219,0.184-0.188,0.366-0.072l0.139,0.096l3.05,1.961c0,0,0.26-0.506,0.322-0.604
	c0.131-0.199,0.258-0.285,0.394-0.514C46.863,46.848,46.867,45.936,46.23,45.525 M43.913,45.457
	c0.349,0.225,0.587,0.537,0.251,1.092l-0.13,0.219l-1.203-0.779c-0.094-0.062-0.127-0.08-0.075-0.164l0.057-0.1
	C43.07,45.301,43.489,45.18,43.913,45.457 M45.902,46.191c0.42,0.266,0.584,0.719,0.314,1.17c-0.108,0.184-0.25,0.354-0.387,0.492
	c-0.042,0.041-0.043,0.041-0.08,0.018l-1.459-0.943l0.118-0.197C44.878,45.957,45.406,45.869,45.902,46.191 M44.426,42.6
	c-0.028,0.098,0.083,0.131,0.158,0.166l3.35,1.609l-0.25,0.703l-3.406-1.643c-0.216-0.102-0.171-0.094-0.298,0.1
	c-0.053,0.084-0.103,0.205-0.209,0.152c-0.107-0.049-0.128-0.143-0.064-0.27c0.087-0.152,0.222-0.412,0.284-0.545
	c0.059-0.139,0.146-0.367,0.206-0.531c0.05-0.135,0.136-0.18,0.239-0.125C44.516,42.256,44.492,42.363,44.426,42.6 M49.014,41.746
	c-0.093,0.285-0.316,0.732-0.715,1.055l-0.322-0.295c0.357-0.23,0.635-0.643,0.709-0.871c0.171-0.537,0.042-1.006-0.423-1.158
	c-0.229-0.08-0.44,0.09-0.644,0.281c-0.325,0.295-0.589,0.668-0.969,0.891c-0.293,0.18-0.628,0.291-1.093,0.139
	c-0.636-0.217-0.844-0.984-0.615-1.719c0.078-0.238,0.215-0.525,0.409-0.893c0.3,0.08,0.515,0.152,0.687,0.209
	c0.092,0.031,0.18,0.072,0.139,0.211c-0.029,0.09-0.084,0.143-0.419,0.098c-0.142-0.027-0.346,0.096-0.485,0.529
	c-0.145,0.465-0.06,0.902,0.376,1.045c0.308,0.107,0.766-0.451,0.947-0.656c0.209-0.232,0.451-0.496,0.743-0.639
	c0.266-0.141,0.593-0.18,0.938-0.062C49.037,40.164,49.256,40.982,49.014,41.746"/>
<g>
	<path fill="#FFFFFF" d="M72.453,53.189c-1.116,0-2.924-0.355-4.326-1.303l0.428-0.898c0.999,0.852,2.9,1.539,3.898,1.539
		c2.259,0,4.041-1.445,4.041-3.693c0-1.586-1.188-2.295-2.448-2.887c-0.451-0.211-0.951-0.449-1.449-0.662
		c-1.998-0.898-4.018-2.082-4.018-5.277c0-2.461,2.164-4.045,5.016-4.045c0.975,0,2.116,0.189,3.424,0.449
		c0.048,0.994,0.071,1.918,0.071,2.65c0,0.426-0.047,0.473-0.286,0.473c-0.167,0-0.214-0.023-0.428-1.254
		c-0.143-0.826-1.069-1.656-2.947-1.656c-1.784,0-3.566,1.277-3.566,3.408c0,1.537,1.238,2.271,2.473,2.838
		c0.476,0.215,0.998,0.451,1.498,0.664c2.02,0.875,4.09,1.986,4.09,4.873C77.923,51.438,75.426,53.189,72.453,53.189z"/>
	<path fill="#FFFFFF" d="M89.485,53l-2.234-5.443h-4.896l-2.14,5.229l-1.428,0.189l5.302-12.115c0.12-0.283,0.095-0.449-0.048-0.756
		l-0.332-0.709h1.759c0.144,0,0.285,0.094,0.356,0.234l5.492,13.133L89.485,53z M84.898,41.643l-2.163,5.205h4.159L84.898,41.643z"
		/>
	<path fill="#FFFFFF" d="M96.451,47.248c-0.474,0-1.068-0.377-1.068-0.543c0-0.189,0.07-0.285,0.262-0.285
		c0.237,0,0.57,0.166,0.88,0.166c1.924,0,2.733-1.396,2.733-3.051c0-2.061-0.904-3.361-3.996-3.361
		c-0.473,0-0.545,0.047-0.545,0.617v11.994L92.909,53V41.121c0-0.9,0-1.088-1.021-1.137c-0.475-0.023-0.571-0.141-0.571-0.332
		c0-0.234,0.144-0.307,0.358-0.307c0.26,0,0.57,0.072,0.831,0.119c0.38,0.07,1.141,0.119,1.642,0.119
		c0.808,0,2.067-0.096,2.875-0.096c1.854,0,4.04,1.303,4.04,3.598C101.062,45.545,99.233,47.248,96.451,47.248z"/>
	<path fill="#FFFFFF" d="M105.756,40.174c-0.429,0.072-0.429,0.545-0.429,0.924v11.711l-1.807,0.143V41.098
		c0-0.402-0.023-0.852-0.382-0.924c-0.761-0.117-0.998-0.141-0.998-0.377c0-0.213,0.096-0.332,0.405-0.309
		c0.572,0.047,1.476,0.096,1.925,0.096c0.452,0,1.211-0.049,1.783-0.096c0.308-0.023,0.405,0.096,0.405,0.309
		C106.659,40.008,106.351,40.08,105.756,40.174z"/>
	<path fill="#FFFFFF" d="M117.545,52.455c-0.023,0.545-0.188,0.592-0.664,0.568c-1.831-0.072-3.661-0.262-5.491-0.143l-1.427,0.094
		V41.098c0-0.9-0.024-1.09-1.046-1.137c-0.477-0.023-0.547-0.094-0.547-0.283c0-0.213,0.118-0.332,0.356-0.332
		c0.261,0,0.57,0.072,0.831,0.119c0.381,0.07,1.046,0.119,1.547,0.119c1.712,0,3.396-0.049,5.11-0.119
		c0.475-0.023,0.641,0,0.666,0.543c0.024,0.617,0.047,1.232,0.047,1.705c0,0.355-0.072,0.402-0.263,0.402
		c-0.403,0-0.308-1.443-0.71-1.705c-0.313-0.189-1.19-0.258-1.381-0.258h-2.424c-0.357,0-0.381,0.068-0.381,0.211v5.514h2.543
		c0.309,0,0.976-0.023,1.047-0.426c0.165-0.875,0.237-1.041,0.45-1.041c0.263,0,0.285,0.166,0.263,0.4
		c-0.048,0.547-0.096,0.949-0.096,1.373c0,0.428,0.048,0.854,0.096,1.398c0.022,0.236,0,0.4-0.263,0.4
		c-0.213,0-0.285-0.164-0.45-1.041c-0.071-0.402-0.643-0.449-1.047-0.449h-2.543v4.826c0,0.758,0.023,0.854,0.522,0.922
		c0.451,0.072,0.855,0.119,1.521,0.119c0.428,0,2.498-0.023,2.782-0.213c0.404-0.26,0.311-1.775,0.737-1.775
		c0.189,0,0.263,0.047,0.263,0.404C117.595,51.248,117.569,51.84,117.545,52.455z"/>
	<path fill="#FFFFFF" d="M131.712,39.984c-1.022,0.049-1.022,0.236-1.022,1.137v1.158v10.482L129.597,53l-8.368-11.264v11.002
		l-0.975,0.285V41.547v-0.426c0-0.9,0-1.088-1.021-1.137c-0.499-0.023-0.547-0.117-0.547-0.283c0-0.213,0.095-0.379,0.357-0.355
		c0.809,0.096,1.971,0.143,2.613,0.189l8.036,10.955v-8.211v-1.158c0-0.9,0-1.088-1.022-1.137c-0.477-0.023-0.571-0.096-0.571-0.283
		c0-0.236,0.143-0.355,0.356-0.355c0.334,0,1.427,0.189,1.83,0.189c0.379,0,1.332-0.189,1.642-0.189
		c0.213,0,0.355,0.119,0.355,0.355C132.282,39.889,132.188,39.961,131.712,39.984z"/>
	<path fill="#FFFFFF" d="M148.856,39.629c-0.07-0.141-0.212-0.234-0.355-0.234h-1.76l0.334,0.709
		c0.142,0.307,0.166,0.473,0.048,0.756l-4.898,11.195c-2.734-0.26-6.174-0.297-7.705-0.322l7.84-11.707l-0.119-0.496l-7.201,0.029
		c-1.499,0-1.712-0.164-1.784-0.164c-0.143,0-0.191,0.117-0.237,0.283c-0.118,0.449-0.333,1.088-0.024,1.088l0.169-0.094
		c0.332-0.238,0.64-0.379,1.067-0.379l6.253-0.084l-8.104,11.92c-0.072,0.094-0.097,0.143-0.097,0.262
		c0,0.143,0.12,0.26,0.264,0.234c0.427-0.049,1.062-0.121,1.444-0.129c2.154-0.049,6.006,0.111,8.418,0.35h0.002
		c0.283,0.031,0.502,0.129,0.646,0.08l2.33-5.369h4.899L152.52,53l1.829-0.238L148.856,39.629z M145.768,46.848l2.163-5.205
		l1.996,5.205H145.768z"/>
</g>
<g>
	<path fill="#FFFFFF" d="M72.305,12.399c-0.499,0.095-0.57,0.617-0.57,1.21v14.809l-1.898,0.214V13.609
		c0-0.522-0.023-1.14-0.475-1.21c-1.092-0.19-1.234-0.214-1.234-0.38c0-0.285,0.166-0.309,0.475-0.285
		c0.713,0.047,1.685,0.095,2.255,0.095c0.569,0,1.353-0.047,2.064-0.095c0.309-0.024,0.476,0,0.476,0.285
		C73.396,12.185,73.183,12.256,72.305,12.399z"/>
	<path fill="#FFFFFF" d="M87.494,15.579c-1.021,0.047-1.021,0.237-1.021,1.139v1.163v10.514l-1.092,0.237l-8.354-11.297v11.036
		l-0.972,0.284v-11.51v-0.427c0-0.902,0-1.092-1.021-1.139c-0.498-0.024-0.546-0.119-0.546-0.285c0-0.214,0.095-0.38,0.356-0.356
		c0.808,0.095,1.97,0.142,2.61,0.19l8.022,10.988v-8.235v-1.163c0-0.902,0-1.092-1.021-1.139c-0.475-0.024-0.57-0.095-0.57-0.285
		c0-0.237,0.143-0.356,0.356-0.356c0.332,0,1.424,0.19,1.827,0.19c0.38,0,1.33-0.19,1.638-0.19c0.214,0,0.356,0.119,0.356,0.356
		C88.064,15.484,87.969,15.555,87.494,15.579z"/>
	<path fill="#FFFFFF" d="M97.821,17.715c-0.403,0-0.285-1.495-0.712-1.78c-0.262-0.166-0.997-0.166-1.187-0.166h-2.659
		c-0.355,0-0.379,0.071-0.379,0.214v5.482h2.587c0.332,0,0.76,0,0.83-0.403c0.167-0.878,0.237-1.044,0.451-1.044
		s0.261,0.023,0.237,0.403c-0.048,0.546-0.07,0.949-0.07,1.376s0.022,0.854,0.07,1.4c0.023,0.38-0.023,0.403-0.237,0.403
		s-0.284-0.166-0.451-1.044c-0.07-0.404-0.427-0.451-0.83-0.451h-2.587v6.289l-1.804,0.237V16.718c0-0.902,0-1.092-1.021-1.139
		c-0.475-0.024-0.57-0.119-0.57-0.309c0-0.213,0.119-0.332,0.356-0.332c0.261,0,0.569,0.071,0.83,0.119
		c0.38,0.071,1.258,0.119,1.757,0.119c1.638,0,3.299-0.047,4.937-0.119c0.475-0.024,0.641,0,0.664,0.546
		c0.024,0.617,0.048,1.234,0.048,1.708C98.082,17.667,98.011,17.715,97.821,17.715z"/>
	<path fill="#FFFFFF" d="M106.912,28.751c-4.059,0-7.072-2.896-7.072-6.907c0-4.225,3.56-6.906,7.072-6.906
		c3.679,0,7.073,2.492,7.073,6.906C113.985,25.855,110.971,28.751,106.912,28.751z M106.912,15.603
		c-2.848,0-5.079,2.088-5.079,6.218c0,3.631,1.709,6.266,5.079,6.266c3.632,0,5.079-2.634,5.079-6.266
		C111.991,17.596,109.523,15.603,106.912,15.603z"/>
	<path fill="#FFFFFF" d="M119.85,28.823c-1.115,0-2.919-0.356-4.319-1.306l0.427-0.902c0.997,0.854,2.896,1.542,3.893,1.542
		c2.255,0,4.035-1.448,4.035-3.702c0-1.59-1.187-2.302-2.444-2.896c-0.452-0.214-0.95-0.451-1.448-0.665
		c-1.994-0.902-4.011-2.089-4.011-5.292c0-2.468,2.159-4.059,5.007-4.059c0.974,0,2.113,0.19,3.418,0.451
		c0.048,0.997,0.071,1.923,0.071,2.659c0,0.427-0.047,0.475-0.284,0.475c-0.167,0-0.214-0.024-0.428-1.258
		c-0.143-0.831-1.067-1.661-2.942-1.661c-1.78,0-3.561,1.281-3.561,3.417c0,1.543,1.233,2.278,2.469,2.848
		c0.475,0.213,0.996,0.451,1.495,0.665c2.018,0.878,4.082,1.994,4.082,4.889C125.309,27.066,122.816,28.823,119.85,28.823z"/>
	<path fill="#FFFFFF" d="M138.27,16.101l-0.76-0.142h-4.249v12.484l-1.804,0.189V15.959c-1.115-0.024-3.346,0-3.346,0
		c-0.997,0-1.116,0.213-1.211,0.712c-0.048,0.237,0,1.044-0.356,1.044h-0.047c-0.237,0-0.284-0.143-0.284-0.404
		c0-0.475,0-1.091,0.022-1.708c0.024-0.546,0.19-0.57,0.665-0.546c0.617,0.023,1.139,0.047,1.993,0.071
		c2.54,0.095,5.127,0.047,7.667,0.047c0.664,0,1.424-0.237,1.756-0.237c0.096,0,0.262,0.047,0.262,0.237
		C138.578,15.532,138.459,15.579,138.27,16.101z"/>
	<path fill="#FFFFFF" d="M151.539,15.745c-0.427,0.071-0.403,0.617-0.427,0.926c0,0.142-0.096,4.818-0.381,7.025
		c-0.213,1.566-0.901,5.056-4.794,5.056c-3.916,0-5.055-3.038-5.316-5.079c-0.143-1.092-0.213-4.343-0.213-6.076
		c0-0.546-0.025-0.925-0.025-0.925c0-0.404,0-0.854-0.355-0.926c-0.902-0.142-1.02-0.213-1.02-0.332
		c0-0.167,0.047-0.356,0.402-0.333c0.57,0.048,1.473,0.095,1.922,0.095c0.453,0,1.211-0.047,1.781-0.095
		c0.355-0.023,0.402,0.166,0.402,0.333c0,0.119-0.189,0.213-0.902,0.332c-0.379,0.071-0.449,0.451-0.426,0.926
		c0,0,0.047,4.296,0.166,6.432c0.189,3.347,1.496,5.055,3.584,5.055c2.587,0,3.774-2.136,3.964-4.913
		c0.143-2.207,0.143-4.13,0.143-6.171v-0.403c0-0.404,0-0.854-0.356-0.926c-0.901-0.142-0.997-0.213-0.997-0.332
		c0-0.167,0.048-0.356,0.404-0.333c0.569,0.048,1.163,0.095,1.613,0.095c0.451,0,0.76-0.047,1.329-0.095
		c0.356-0.023,0.403,0.166,0.403,0.333C152.44,15.532,152.251,15.626,151.539,15.745z"/>
	<path fill="#FFFFFF" d="M159.848,28.751c-0.641,0-1.97-0.309-3.038-0.237l-1.447,0.095V16.718c0-0.902,0-1.092-1.021-1.139
		c-0.475-0.024-0.57-0.119-0.57-0.309c0-0.213,0.119-0.332,0.356-0.332c0.261,0,0.569,0.071,0.831,0.119
		c0.38,0.071,1.067,0.119,1.565,0.119c0.476,0,0.949-0.024,1.425-0.047c0.594-0.024,1.258-0.048,2.278-0.048
		c4.035,0,7.025,2.611,7.025,6.551C167.253,25.855,164.476,28.751,159.848,28.751z M159.705,15.769h-1.756
		c-0.546,0-0.783,0.214-0.783,0.831v10.396c0,0.735,0.024,0.783,0.522,0.925c0.616,0.19,1.376,0.237,2.325,0.237
		c3.773,0,5.246-2.634,5.246-6.242C165.26,18.759,164.381,15.769,159.705,15.769z"/>
</g>
</svg>
